# xmcd
# 
# Track frame offsets:
#     150
#     16852
#     36289
#     52040
#     68508
#     86649
#     104627
#     126037
#     147837
#     165032
#     182732
#     198752
#     213051
#     235146
#     251157
#     269117
#     287655
#     303360
#     318197
#     333708
# 
# Disc length: 4645
# 
# Revision: 1
# Processed by: cddbd v1.5.2PL0 Copyright (c) Steve Scherf et al.
# Submitted via: fre:ac v1.0.27
# 
DISCID=1c122314
DTITLE=Andre Hazes - Alle 40 Goed Disc 1
DYEAR=2010
DGENRE=Blues
TTITLE0=Kleine Jongen
TTITLE1=Geef Mij Je Angst
TTITLE2=Vaag En Stil
TTITLE3=De Vlieger
TTITLE4=Zij Gelooft In Mij
TTITLE5=Bloed, Zweet En Tranen
TTITLE6=Je Bent Alles
TTITLE7=Ik Leef Mijn Eigen Leven
TTITLE8=Diep In Mijn Hart
TTITLE9=Poei Poei
TTITLE10='t Rode Licht
TTITLE11=Ik Ben Een Gokker
TTITLE12='n Vriend
TTITLE13=Voor Mijn Geen Slingers Aan De Wand
TTITLE14=Waarom
TTITLE15=Alsjeblieft Laat Me Zeggen Schat
TTITLE16=Wees Zuinig Op M'n Meissie
TTITLE17=De Glimlach Van Een Kind
TTITLE18=Droomland
TTITLE19=Bedankt Mijn Vriend
EXTD=
EXTT0=
EXTT1=
EXTT2=
EXTT3=
EXTT4=
EXTT5=
EXTT6=
EXTT7=
EXTT8=
EXTT9=
EXTT10=
EXTT11=
EXTT12=
EXTT13=
EXTT14=
EXTT15=
EXTT16=
EXTT17=
EXTT18=
EXTT19=
PLAYORDER=
